<svg width="156" height="81" viewBox="0 0 156 81" fill="none" xmlns="http://www.w3.org/2000/svg">
<path d="M39.5273 39.5248L39.8467 39.4573H66.4121L76.3943 49.4395H49.4424L39.5273 39.5248Z" fill="white"/>
<path d="M30.9756 39.4573L4.02344 39.4574L14.0056 49.4397H30.9753L30.9756 39.4573Z" fill="white"/>
<path d="M85.6719 10.7825H89.8117V23.646H96.9219V27.1309H85.6719V10.7825Z" fill="white"/>
<path d="M104.437 27.4819C103.049 27.4819 101.834 27.2325 100.788 26.7334C99.7435 26.219 98.9328 25.5175 98.3558 24.6286C97.7943 23.7243 97.5137 22.6874 97.5137 21.5179C97.5137 20.3485 97.7943 19.3194 98.3558 18.4307C98.9328 17.5264 99.7435 16.8247 100.788 16.3258C101.834 15.8112 103.049 15.554 104.437 15.554C105.825 15.554 107.041 15.8112 108.086 16.3258C109.13 16.8247 109.933 17.5264 110.495 18.4307C111.072 19.3194 111.36 20.3485 111.36 21.5179C111.36 22.6874 111.072 23.7243 110.495 24.6286C109.933 25.5175 109.13 26.219 108.086 26.7334C107.041 27.2325 105.825 27.4819 104.437 27.4819ZM104.437 24.2778C105.263 24.2778 105.919 24.0361 106.402 23.5528C106.901 23.0538 107.15 22.3756 107.15 21.5179C107.15 20.6604 106.901 19.9899 106.402 19.5065C105.919 19.0076 105.263 18.7581 104.437 18.7581C103.611 18.7581 102.949 19.0076 102.449 19.5065C101.966 19.9899 101.724 20.6604 101.724 21.5179C101.724 22.3756 101.966 23.0538 102.449 23.5528C102.949 24.0361 103.611 24.2778 104.437 24.2778Z" fill="white"/>
<path d="M119.093 32.5104C118.344 32.5104 117.588 32.4403 116.824 32.2999C116.075 32.1597 115.429 31.9725 114.883 31.7386V28.8853C116.115 29.4154 117.518 29.6806 119.093 29.6806C120.231 29.6806 121.05 29.4466 121.548 28.9787C122.063 28.511 122.32 27.8251 122.32 26.9206V26.2423C121.868 26.6321 121.307 26.9362 120.637 27.1545C119.982 27.3729 119.279 27.4819 118.531 27.4819C117.347 27.4819 116.301 27.2325 115.398 26.7334C114.493 26.2347 113.784 25.5329 113.269 24.6286C112.77 23.7243 112.521 22.6874 112.521 21.5179C112.521 20.3329 112.77 19.2882 113.269 18.3839C113.769 17.4796 114.47 16.7858 115.374 16.3024C116.278 15.8034 117.316 15.554 118.484 15.554C120.091 15.554 121.416 16.0451 122.461 17.0274V15.9048H126.436V26.3594C126.436 28.3084 125.837 29.8208 124.636 30.8967C123.45 31.9725 121.603 32.5104 119.093 32.5104ZM119.56 24.3011C120.2 24.3011 120.769 24.1374 121.268 23.81C121.766 23.4825 122.118 23.0461 122.32 22.5002V20.5357C122.102 19.9899 121.743 19.5611 121.244 19.2493C120.745 18.9219 120.184 18.7581 119.56 18.7581C118.719 18.7581 118.04 19.0076 117.526 19.5065C117.011 19.9899 116.754 20.6527 116.754 21.4946C116.754 22.3521 117.011 23.0382 117.526 23.5528C118.04 24.0517 118.719 24.3011 119.56 24.3011Z" fill="white"/>
<path d="M134.404 27.4818C133.016 27.4818 131.799 27.2324 130.755 26.7333C129.71 26.2188 128.899 25.5173 128.322 24.6285C127.761 23.7241 127.48 22.6873 127.48 21.5178C127.48 20.3484 127.761 19.3193 128.322 18.4306C128.899 17.5263 129.71 16.8246 130.755 16.3257C131.799 15.811 133.016 15.5538 134.404 15.5538C135.791 15.5538 137.007 15.811 138.052 16.3257C139.097 16.8246 139.9 17.5263 140.461 18.4306C141.038 19.3193 141.327 20.3484 141.327 21.5178C141.327 22.6873 141.038 23.7241 140.461 24.6285C139.9 25.5173 139.097 26.2188 138.052 26.7333C137.007 27.2324 135.791 27.4818 134.404 27.4818ZM134.404 24.2777C135.23 24.2777 135.884 24.036 136.368 23.5527C136.867 23.0537 137.116 22.3755 137.116 21.5178C137.116 20.6603 136.867 19.9898 136.368 19.5063C135.884 19.0075 135.23 18.758 134.404 18.758C133.577 18.758 132.914 19.0075 132.415 19.5063C131.932 19.9898 131.691 20.6603 131.691 21.5178C131.691 22.3755 131.932 23.0537 132.415 23.5527C132.914 24.036 133.577 24.2777 134.404 24.2777Z" fill="white"/>
<path d="M85.6719 33.1484H89.8117V49.4969H85.6719V33.1484Z" fill="white"/>
<path d="M91.9073 38.2704H95.8828V39.393C96.9274 38.4108 98.2537 37.9197 99.8596 37.9197C101.028 37.9197 102.066 38.1691 102.969 38.6682C103.874 39.1514 104.575 39.8452 105.075 40.7495C105.574 41.6383 105.823 42.6753 105.823 43.8602C105.823 45.0296 105.574 46.0743 105.075 46.9942C104.575 47.8985 103.874 48.6004 102.969 49.0991C102.082 49.5981 101.044 49.8476 99.8596 49.8476C99.1103 49.8476 98.3935 49.7306 97.7079 49.4968C97.0369 49.2786 96.4756 48.9744 96.0239 48.5846V54.6189H91.9073V38.2704ZM98.7838 46.6435C99.6257 46.6435 100.303 46.394 100.818 45.895C101.332 45.3961 101.59 44.7177 101.59 43.8602C101.59 43.0027 101.332 42.3322 100.818 41.8488C100.303 41.3499 99.6257 41.1005 98.7838 41.1005C98.1598 41.1005 97.5984 41.2642 97.0996 41.5916C96.6008 41.9033 96.2418 42.3322 96.0239 42.8779V44.8659C96.2418 45.4117 96.6008 45.8482 97.0996 46.1756C97.5984 46.4876 98.1598 46.6435 98.7838 46.6435Z" fill="white"/>
<path d="M111.96 49.8476C111.055 49.8476 110.112 49.754 109.13 49.5669C108.148 49.3955 107.367 49.146 106.791 48.8186V45.8015C107.43 46.1756 108.194 46.4876 109.083 46.7371C109.987 46.9709 110.814 47.0878 111.562 47.0878C112.108 47.0878 112.506 47.0487 112.755 46.9709C113.004 46.8929 113.129 46.7371 113.129 46.5031C113.129 46.316 113.044 46.1679 112.871 46.0589C112.716 45.9341 112.42 45.8093 111.984 45.6845C111.562 45.5442 111.071 45.3961 110.51 45.2401C109.558 44.9595 108.81 44.6709 108.264 44.3747C107.718 44.0785 107.313 43.7044 107.048 43.2521C106.783 42.8001 106.65 42.2307 106.65 41.5447C106.65 40.3287 107.126 39.4242 108.077 38.8319C109.043 38.2236 110.362 37.9197 112.029 37.9197C112.84 37.9197 113.69 38.0054 114.579 38.1768C115.484 38.3484 116.161 38.5746 116.614 38.8552V41.8255C116.146 41.5136 115.523 41.2563 114.743 41.0537C113.979 40.851 113.262 40.7495 112.591 40.7495C112.061 40.7495 111.648 40.8041 111.352 40.9133C111.055 41.0069 110.908 41.1785 110.908 41.4279C110.908 41.6617 111.055 41.8411 111.352 41.9657C111.648 42.0905 112.178 42.2465 112.942 42.4335C113.441 42.5582 113.652 42.6129 113.574 42.5973C114.571 42.8623 115.343 43.1585 115.888 43.486C116.434 43.8136 116.817 44.2033 117.035 44.6555C117.269 45.092 117.386 45.6533 117.386 46.3393C117.386 47.4153 116.918 48.2729 115.982 48.912C115.062 49.5357 113.721 49.8476 111.96 49.8476Z" fill="white"/>
<path d="M123.533 49.8474C121.99 49.8474 120.828 49.4186 120.049 48.5611C119.285 47.7034 118.902 46.5732 118.902 45.1698V38.2703H123.019V44.702C123.019 45.9961 123.604 46.6433 124.772 46.6433C125.303 46.6433 125.786 46.5185 126.223 46.269C126.66 46.0196 127.018 45.6531 127.298 45.1698V38.2703H131.415V49.4966H127.439V48.2803C126.956 48.795 126.371 49.1848 125.685 49.4498C124.999 49.7149 124.281 49.8474 123.533 49.8474Z" fill="white"/>
<path d="M133.522 38.2704H137.334V39.4866C137.802 38.9877 138.34 38.6058 138.948 38.3406C139.556 38.0599 140.204 37.9197 140.889 37.9197C141.731 37.9197 142.402 38.0443 142.901 38.2938C143.416 38.5434 143.828 38.9174 144.14 39.4165C144.608 38.9486 145.177 38.5823 145.848 38.3172C146.518 38.0522 147.197 37.9197 147.882 37.9197C149.364 37.9197 150.416 38.3016 151.04 39.0656C151.664 39.814 151.976 40.8977 151.976 42.3166V49.4968H148.046V42.9014C148.046 42.2777 147.929 41.8255 147.695 41.5447C147.462 41.2642 147.071 41.1238 146.526 41.1238C145.824 41.1238 145.255 41.3734 144.819 41.8721C144.835 42.1373 144.843 42.5427 144.843 43.0884V49.4968H140.913V42.7377C140.913 42.1606 140.811 41.7475 140.609 41.498C140.406 41.2486 140.047 41.1238 139.533 41.1238C138.738 41.1238 138.051 41.5681 137.475 42.4569V49.4968H133.522V38.2704Z" fill="white"/>
<path d="M39.8478 39.4574L39.5282 39.5251L49.4428 49.4397V76.3916H40.9578L30.9756 66.4094H39.4605V39.4573H30.9756V30.9726H39.4605V4.02051L49.4428 14.0027V30.9725L39.4605 30.9726V39.4573L39.8478 39.4574Z" fill="#E9E9E9"/>
<path d="M66.414 39.4574L76.3963 49.4396V40.9546L66.414 30.9724V39.4574Z" fill="#E9E9E9"/>
<path d="M86.2568 57.1709H92.3143C94.0292 57.1709 95.3621 57.5763 96.3138 58.3872C97.2799 59.1979 97.7642 60.3985 97.7642 61.9889C97.7642 63.5949 97.2878 64.7956 96.3373 65.5909C95.3856 66.386 94.0448 66.7836 92.3143 66.7836H88.0811V73.5194H86.2568V57.1709ZM92.1741 65.24C93.3436 65.24 94.264 65.0061 94.9338 64.5383C95.6048 64.055 95.9391 63.2052 95.9391 61.9889C95.9391 60.7571 95.6048 59.9073 94.9338 59.4397C94.264 58.9562 93.3436 58.7147 92.1741 58.7147H88.0811V65.24H92.1741Z" fill="#E9E9E9"/>
<path d="M100.098 56.2351H101.898V73.5191H100.098V56.2351Z" fill="#E9E9E9"/>
<path d="M109.705 73.87C108.208 73.87 107.054 73.4646 106.243 72.6537C105.448 71.843 105.051 70.7593 105.051 69.4028V62.2927H106.851V69.4964C106.851 71.461 107.872 72.4433 109.915 72.4433C110.773 72.4433 111.521 72.2561 112.161 71.8821C112.815 71.5077 113.4 70.9152 113.914 70.1045V62.2927H115.716V73.5191H113.961V71.8351C112.948 73.1917 111.529 73.87 109.705 73.87Z" fill="#E9E9E9"/>
<path d="M122.892 73.8702C122.159 73.8702 121.371 73.761 120.529 73.5427C119.687 73.3399 119.033 73.0828 118.565 72.7708V71.2507C119.157 71.6093 119.836 71.8977 120.6 72.1159C121.379 72.3343 122.127 72.4433 122.845 72.4433C123.811 72.4433 124.506 72.3108 124.926 72.0458C125.364 71.7652 125.582 71.352 125.582 70.8063C125.582 70.3853 125.488 70.0578 125.301 69.824C125.113 69.5744 124.802 69.3562 124.365 69.1691C123.929 68.9819 123.25 68.7637 122.331 68.5142C121.426 68.2648 120.702 68.0075 120.156 67.7424C119.626 67.4616 119.22 67.1109 118.939 66.6898C118.658 66.269 118.519 65.731 118.519 65.0761C118.519 64.0626 118.924 63.2908 119.734 62.7607C120.561 62.2149 121.652 61.9421 123.009 61.9421C123.741 61.9421 124.428 62.0123 125.067 62.1525C125.722 62.2773 126.267 62.4566 126.705 62.6906V64.2107C126.252 63.9613 125.706 63.7664 125.067 63.626C124.428 63.4701 123.765 63.3921 123.079 63.3921C122.174 63.3921 121.489 63.5247 121.02 63.7897C120.553 64.0549 120.319 64.4837 120.319 65.0761C120.319 65.4816 120.397 65.7934 120.553 66.0116C120.725 66.2299 121.028 66.4327 121.465 66.6197C121.917 66.7913 122.635 67.0096 123.617 67.2746C125.02 67.6644 125.994 68.1244 126.54 68.6546C127.101 69.1691 127.382 69.8864 127.382 70.8063C127.382 71.7573 127.009 72.5057 126.259 73.0516C125.527 73.5973 124.404 73.8702 122.892 73.8702Z" fill="#E9E9E9"/>
</svg>
