<svg width="131" height="131" viewBox="0 0 131 131" fill="none" xmlns="http://www.w3.org/2000/svg">
<g clip-path="url(#clip0_1_55)">
<path d="M131 65.5C131 101.675 101.675 131 65.5 131C29.3253 131 0 101.675 0 65.5C0 29.3253 29.3253 0 65.5 0C101.675 0 131 29.3253 131 65.5Z" fill="#1D2633"/>
<path d="M114.157 82.2244C116.369 82.2244 117.942 84.3741 117.11 86.4236C108.84 106.803 88.8484 121.175 65.5005 121.175C42.1527 121.175 22.1614 106.803 13.8909 86.4236C13.0591 84.3741 14.6325 82.2244 16.8444 82.2244H114.157Z" fill="white"/>
<path d="M117.11 44.5765C117.942 46.6262 116.369 48.7759 114.157 48.7759H16.8444C14.6325 48.7759 13.0591 46.6262 13.8909 44.5765C22.1614 24.197 42.1526 9.8252 65.5004 9.8252C88.8484 9.8252 108.839 24.197 117.11 44.5765Z" fill="white"/>
<path d="M114.357 60.833C118.037 60.833 119.813 63.4003 119.813 66.374V71.9579H115.962V67.0373C115.962 65.6895 115.47 64.577 114.058 64.577C112.646 64.577 112.175 65.6895 112.175 67.0373V71.9579H108.324V67.0373C108.324 65.6895 107.854 64.577 106.442 64.577C105.03 64.577 104.537 65.6895 104.537 67.0373V71.9579H100.687V66.374C100.687 63.4003 102.462 60.833 106.142 60.833C108.153 60.833 109.608 61.6246 110.271 62.9297C110.977 61.6246 112.517 60.833 114.357 60.833Z" fill="white"/>
<path d="M93.7679 68.5346C95.0088 68.5346 95.5436 67.4007 95.5436 66.0529V61.2606H99.3945V66.5235C99.3945 69.6684 97.5547 72.2785 93.7679 72.2785C89.9812 72.2785 88.1415 69.6684 88.1415 66.5235V61.2606H91.9922V66.0529C91.9922 67.4007 92.5272 68.5346 93.7679 68.5346Z" fill="white"/>
<path d="M82.4782 72.2999C80.0607 72.2999 78.4989 71.4656 77.5791 69.8397L80.3602 68.2779C80.7454 68.9625 81.3229 69.3047 82.2856 69.3047C83.0772 69.3047 83.4409 69.0267 83.4409 68.6845C83.4409 67.3794 77.793 68.7057 77.793 64.5553C77.793 62.5443 79.5045 60.9185 82.414 60.9185C84.96 60.9185 86.3505 62.1592 86.971 63.3573L84.1897 64.9405C83.9544 64.2986 83.227 63.9136 82.4996 63.9136C81.9434 63.9136 81.6439 64.1489 81.6439 64.4699C81.6439 65.7962 87.2918 64.5768 87.2918 68.5988C87.2918 70.8451 85.0883 72.2999 82.4782 72.2999Z" fill="white"/>
<path d="M69.0247 76.8781H65.1738V66.5878C65.1738 63.3146 67.6342 60.9397 71.0572 60.9397C74.3946 60.9397 76.9404 63.4857 76.9404 66.5878C76.9404 70.0108 74.6728 72.2786 71.2711 72.2786C70.4795 72.2786 69.6879 72.0433 69.0247 71.6794V76.8781ZM71.0572 68.663C72.2766 68.663 73.0895 67.7216 73.0895 66.6092C73.0895 65.4752 72.2766 64.5553 71.0572 64.5553C69.8378 64.5553 69.0247 65.4752 69.0247 66.6092C69.0247 67.7216 69.8378 68.663 71.0572 68.663Z" fill="white"/>
<path d="M61.3162 60.127C60.0541 60.127 59.0057 59.0787 59.0057 57.8165C59.0057 56.5542 60.0541 55.5059 61.3162 55.5059C62.5786 55.5059 63.6269 56.5542 63.6269 57.8165C63.6269 59.0787 62.5786 60.127 61.3162 60.127ZM59.3909 61.2609H63.2418V71.9578H59.3909V61.2609Z" fill="white"/>
<path d="M52.0025 72.2786C48.6651 72.2786 46.1191 69.7113 46.1191 66.5878C46.1191 63.4857 48.6651 60.9185 52.0025 60.9185C55.3399 60.9185 57.8859 63.4857 57.8859 66.5878C57.8859 69.7113 55.3399 72.2786 52.0025 72.2786ZM52.0025 68.663C53.222 68.663 54.035 67.7216 54.035 66.6093C54.035 65.4753 53.222 64.5341 52.0025 64.5341C50.7831 64.5341 49.97 65.4753 49.97 66.6093C49.97 67.7216 50.7831 68.663 52.0025 68.663Z" fill="white"/>
<path d="M38.8476 77.1991C36.1947 77.1991 34.2693 76.0224 33.2852 73.9259L36.4729 72.2144C36.8151 72.9418 37.457 73.6906 38.7834 73.6906C40.174 73.6906 41.0939 72.8134 41.2008 71.273C40.6875 71.7223 39.8745 72.0645 38.655 72.0645C35.6813 72.0645 33.2852 69.7755 33.2852 66.5663C33.2852 63.4642 35.831 60.9397 39.1685 60.9397C42.5914 60.9397 45.0517 63.3146 45.0517 66.5878V70.8238C45.0517 74.6746 42.3775 77.1991 38.8476 77.1991ZM39.1043 68.4489C40.2596 68.4489 41.1366 67.6574 41.1366 66.4808C41.1366 65.3256 40.2596 64.5553 39.1043 64.5553C37.9704 64.5553 37.0719 65.3256 37.0719 66.4808C37.0719 67.6574 37.9704 68.4489 39.1043 68.4489Z" fill="white"/>
<path d="M26.7515 72.2786C23.4141 72.2786 20.8682 69.7113 20.8682 66.5878C20.8682 63.4857 23.4141 60.9185 26.7515 60.9185C30.0889 60.9185 32.6349 63.4857 32.6349 66.5878C32.6349 69.7113 30.0889 72.2786 26.7515 72.2786ZM26.7515 68.663C27.971 68.663 28.784 67.7216 28.784 66.6093C28.784 65.4753 27.971 64.5341 26.7515 64.5341C25.5321 64.5341 24.7191 65.4753 24.7191 66.6093C24.7191 67.7216 25.5321 68.663 26.7515 68.663Z" fill="white"/>
<path d="M13.8563 57.5171V68.321H20.2316V71.9579H13.3215C10.8825 71.9579 9.89844 70.6742 9.89844 68.6418V57.5171H13.8563Z" fill="white"/>
<path d="M55.6758 10.6894C58.8651 10.1215 62.1483 9.8252 65.5009 9.8252C68.8534 9.8252 72.1366 10.1215 75.3258 10.6894V48.7759H55.6758V10.6894Z" fill="#919191"/>
<path d="M75.3262 82.2245H55.6744C55.6331 90.7688 54.0764 99.2389 51.0757 107.241L47.0271 118.037C52.8076 120.07 59.0249 121.175 65.5004 121.175C71.9757 121.175 78.193 120.07 83.9735 118.037L79.925 107.241C76.9242 99.2389 75.3675 90.7688 75.3262 82.2245Z" fill="#919191"/>
<path d="M75.3242 10.6895C82.4323 11.9551 89.0738 14.5695 94.9742 18.2588V48.776H75.3242V10.6895Z" fill="#C7C7C7"/>
<path d="M83.9745 118.037C92.9109 114.895 100.804 109.537 106.994 102.623L106.028 102.008C99.243 97.6902 95.0959 90.2504 94.9788 82.2244H75.3271C75.3684 90.7687 76.9252 99.2388 79.9261 107.241L83.9745 118.037Z" fill="#C7C7C7"/>
<path d="M36.0251 18.2588C41.9256 14.5695 48.5669 11.9551 55.6751 10.6895V48.776H36.0251V18.2588Z" fill="#616161"/>
<path d="M36.0216 82.2245H55.6732C55.6321 90.7323 54.0885 99.1666 51.1128 107.139L47.0259 118.037C38.0893 114.895 30.1963 109.537 24.0061 102.623L24.9721 102.008C31.7572 97.6903 35.9045 90.2505 36.0216 82.2245Z" fill="#616161"/>
</g>
<defs>
<clipPath id="clip0_1_55">
<rect width="131" height="131" fill="white"/>
</clipPath>
</defs>
</svg>
