<svg width="288" height="53" viewBox="0 0 288 53" fill="none" xmlns="http://www.w3.org/2000/svg">
<g clip-path="url(#clip0_1_42)">
<path d="M26.1827 52.3636C40.643 52.3636 52.3646 40.642 52.3646 26.1818V7.85455C52.3646 5.77139 51.537 3.77356 50.064 2.30054C48.591 0.82753 46.5932 0 44.51 0L27.4918 0V11.486C27.4918 14.1068 27.6515 16.8218 29.0261 19.0525C30.0101 20.6512 31.3265 22.0195 32.8859 23.0646C34.4454 24.1097 36.2113 24.8072 38.0641 25.1097L38.5654 25.1908C38.7721 25.2615 38.9516 25.395 39.0786 25.5727C39.2057 25.7504 39.274 25.9634 39.274 26.1818C39.274 26.4003 39.2057 26.6132 39.0786 26.7909C38.9516 26.9686 38.7721 27.1021 38.5654 27.1728L38.0641 27.254C35.3571 27.6962 32.8574 28.9775 30.9179 30.917C28.9784 32.8564 27.6971 35.3561 27.2549 38.0631L27.1737 38.5645C27.1031 38.7712 26.9696 38.9506 26.7919 39.0777C26.6142 39.2047 26.4012 39.2731 26.1827 39.2731C25.9643 39.2731 25.7513 39.2047 25.5736 39.0777C25.3959 38.9506 25.2624 38.7712 25.1918 38.5645L25.1106 38.0631C24.808 36.2104 24.1105 34.4445 23.0654 32.8851C22.0203 31.3257 20.6521 30.0093 19.0534 29.0252C16.8227 27.6506 14.1077 27.4909 11.4869 27.4909H0.0323486C0.717003 41.3424 12.1624 52.3636 26.1827 52.3636Z" fill="white"/>
<path d="M0 24.8727H11.486C14.1068 24.8727 16.8218 24.713 19.0525 23.3385C20.7962 22.2641 22.2641 20.7962 23.3385 19.0525C24.713 16.8218 24.8727 14.1068 24.8727 11.486V0H7.85455C5.77139 0 3.77356 0.82753 2.30054 2.30054C0.82753 3.77356 0 5.77139 0 7.85455L0 24.8727ZM60.8138 2.61818C60.8138 3.31257 60.538 3.97851 60.047 4.46952C59.556 4.96052 58.89 5.23636 58.1956 5.23636C57.5013 5.23636 56.8353 4.96052 56.3443 4.46952C55.8533 3.97851 55.5775 3.31257 55.5775 2.61818C55.5775 1.9238 55.8533 1.25785 56.3443 0.766848C56.8353 0.275843 57.5013 0 58.1956 0C58.89 0 59.556 0.275843 60.047 0.766848C60.538 1.25785 60.8138 1.9238 60.8138 2.61818ZM277.149 15.8452C284.468 15.8452 288 20.9572 288 26.8783V37.999H280.34V28.1978C280.34 25.5142 279.361 23.2992 276.553 23.2992C273.745 23.2992 272.809 25.5142 272.809 28.1978V37.9977H265.15V28.1978C265.15 25.5142 264.214 23.2992 261.405 23.2992C258.596 23.2992 257.617 25.5142 257.617 28.1978V37.9977H249.959V26.8769C249.959 20.9559 253.49 15.8439 260.809 15.8439C264.809 15.8439 267.703 17.4201 269.022 20.0186C270.425 17.4201 273.49 15.8426 277.149 15.8426V15.8452ZM236.195 31.1825C238.663 31.1825 239.727 28.9244 239.727 26.2394V16.6961H247.385V27.1767C247.385 33.4394 243.727 38.6378 236.195 38.6378C228.663 38.6378 225.004 33.4407 225.004 27.1767V16.6961H232.663V26.2394C232.663 28.9231 233.726 31.1825 236.195 31.1825ZM213.742 38.6797C208.934 38.6797 205.827 37.0185 203.997 33.7811L209.529 30.6707C210.295 32.0335 211.443 32.7155 213.358 32.7155C214.933 32.7155 215.656 32.1617 215.656 31.4797C215.656 28.8812 204.422 31.5229 204.422 23.2586C204.422 19.2528 207.826 16.0154 213.614 16.0154C218.677 16.0154 221.443 18.4857 222.678 20.8721L217.145 24.0244C216.678 22.7468 215.23 21.9796 213.784 21.9796C212.678 21.9796 212.082 22.4483 212.082 23.0871C212.082 25.7289 223.315 23.3005 223.315 31.3095C223.315 35.7827 218.932 38.6797 213.742 38.6797ZM186.981 47.7975H179.322V27.305C179.322 20.7857 184.215 16.0573 191.024 16.0573C197.662 16.0573 202.726 21.1274 202.726 27.305C202.726 34.1215 198.215 38.6378 191.449 38.6378C189.874 38.6378 188.301 38.1692 186.981 37.4439V47.7975ZM191.024 31.4378C193.45 31.4378 195.066 29.5632 195.066 27.3469C195.066 25.09 193.45 23.2573 191.024 23.2573C188.598 23.2573 186.981 25.09 186.981 27.3482C186.981 29.5632 188.598 31.4378 191.024 31.4378ZM171.649 14.4393C169.138 14.4393 167.054 12.3513 167.054 9.83782C167.054 7.32436 169.138 5.23636 171.649 5.23636C174.16 5.23636 176.246 7.32436 176.246 9.83782C176.246 12.3513 174.16 14.4393 171.649 14.4393ZM167.82 16.6961H175.48V37.999H167.82V16.6961ZM153.124 38.6378C146.486 38.6378 141.422 33.5258 141.422 27.305C141.422 21.1274 146.486 16.0154 153.124 16.0154C159.763 16.0154 164.826 21.1274 164.826 27.305C164.826 33.5258 159.763 38.6378 153.124 38.6378ZM153.124 31.4378C155.55 31.4378 157.167 29.5632 157.167 27.3469C157.167 25.09 155.55 23.2154 153.124 23.2154C150.699 23.2154 149.082 25.09 149.082 27.3469C149.082 29.5632 150.699 31.4378 153.124 31.4378ZM126.96 48.4364C121.684 48.4364 117.854 46.0931 115.896 41.9171L122.236 38.5095C122.917 39.9587 124.193 41.4497 126.831 41.4497C129.599 41.4497 131.427 39.7021 131.641 36.6349C130.62 37.5303 129.002 38.2111 126.577 38.2111C120.662 38.2111 115.895 33.6528 115.895 27.2618C115.895 21.0855 120.96 16.0573 127.598 16.0573C134.407 16.0573 139.3 20.7871 139.3 27.305V35.7408C139.3 43.4095 133.98 48.4364 126.96 48.4364ZM127.47 31.0124C129.768 31.0124 131.513 29.4349 131.513 27.0916C131.513 24.7916 129.769 23.2573 127.47 23.2573C125.215 23.2573 123.428 24.7916 123.428 27.0929C123.428 29.4362 125.215 31.0111 127.47 31.0111V31.0124ZM102.904 38.6378C96.2653 38.6378 91.2004 33.5258 91.2004 27.305C91.2004 21.1274 96.2653 16.0154 102.904 16.0154C109.541 16.0154 114.606 21.1274 114.606 27.305C114.606 33.5258 109.542 38.6378 102.904 38.6378ZM102.904 31.4378C105.329 31.4378 106.946 29.5632 106.946 27.3469C106.946 25.09 105.329 23.2154 102.904 23.2154C100.478 23.2154 98.8612 25.09 98.8612 27.3469C98.8612 29.5632 100.478 31.4378 102.904 31.4378ZM77.2534 9.24218V30.7558H89.9345V37.999H76.1891C71.3389 37.999 69.3818 35.4423 69.3818 31.3946V9.24218H77.2534Z" fill="white"/>
</g>
<defs>
<clipPath id="clip0_1_42">
<rect width="288" height="52.3636" fill="white"/>
</clipPath>
</defs>
</svg>
