<svg width="205" height="49" viewBox="0 0 205 49" fill="none" xmlns="http://www.w3.org/2000/svg">
<g clip-path="url(#clip0_1_48)">
<path fill-rule="evenodd" clip-rule="evenodd" d="M12.1481 3.03247V48.5206H0V3.03247H12.1481Z" fill="white"/>
<path fill-rule="evenodd" clip-rule="evenodd" d="M18.2225 3.03247H44.0374C52.4239 3.03247 59.2225 9.82105 59.2225 18.1952C59.2225 26.5694 52.4239 33.3579 44.0374 33.3579H30.3707V48.5206H18.2225V3.03247ZM30.3707 21.2277H44.0374C45.7147 21.2277 47.0744 19.87 47.0744 18.1952C47.0744 16.5204 45.7147 15.1626 44.0374 15.1626H30.3707V21.2277Z" fill="white"/>
<path fill-rule="evenodd" clip-rule="evenodd" d="M104.778 3.03247V26.5347C104.778 31.9779 109.197 36.3905 114.648 36.3905C120.1 36.3905 124.519 31.9779 124.519 26.5347V3.03247H136.667V26.5347C136.667 38.6772 126.809 48.5206 114.648 48.5206C102.488 48.5206 92.63 38.6772 92.63 26.5347V3.03247H104.778Z" fill="white"/>
<path fill-rule="evenodd" clip-rule="evenodd" d="M63.778 24.2603C63.778 12.5365 73.2961 3.03247 85.0372 3.03247H88.0743V15.1626H85.0372C80.0053 15.1626 75.9261 19.2358 75.9261 24.2603V25.7766C75.9261 38.3377 65.7282 48.5206 53.1483 48.5206H51.6299V36.3905H53.1483C59.019 36.3905 63.778 31.6385 63.778 25.7766V24.2603Z" fill="white"/>
<path d="M205.001 4.54882C205.001 7.06106 202.962 9.09763 200.445 9.09763C197.929 9.09763 195.89 7.06106 195.89 4.54882C195.89 2.03657 197.929 0 200.445 0C202.962 0 205.001 2.03657 205.001 4.54882Z" fill="white"/>
<path d="M149.711 48.5204L155.508 24.282L159.818 38.8639C162.387 47.561 174.724 47.561 177.295 38.8639L181.603 24.282L187.4 48.5204H199.89L190.775 10.4068C188.607 1.34305 175.816 1.00746 173.174 9.94513L168.556 25.5741L163.937 9.94514C161.296 1.00751 148.504 1.343 146.336 10.4068L137.221 48.5204H149.711Z" fill="white"/>
</g>
<defs>
<clipPath id="clip0_1_48">
<rect width="205" height="48.5207" fill="white"/>
</clipPath>
</defs>
</svg>
